<?xml version="1.0" encoding="utf-8"?>
<!-- Generator: Adobe Illustrator 19.0.0, SVG Export Plug-In . SVG Version: 6.00 Build 0)  -->
<svg version="1.1"
	 id="svg8" xmlns:dc="http://purl.org/dc/elements/1.1/" xmlns:cc="http://creativecommons.org/ns#" xmlns:rdf="http://www.w3.org/1999/02/22-rdf-syntax-ns#" xmlns:svg="http://www.w3.org/2000/svg"
	 xmlns="http://www.w3.org/2000/svg" xmlns:xlink="http://www.w3.org/1999/xlink" x="0px" y="0px" viewBox="-166 436.1 359.5 34.8"
	 style="enable-background:new -166 436.1 359.5 34.8;" xml:space="preserve">
<style type="text/css">
	.st0{fill:#00CCFF;}
	.st1{fill:#FF0066;}
	.st2{fill:#0B1728;}
</style>
<g id="layer1">
	<g id="g4776" transform="matrix(1,0,-0.47130525,1,-91.2189,1.0690781)">
		<path id="path4769" class="st0" d="M214.3,434.3c-2.3,0-4.3,0.2-6,0.7c-1.7,0.4-3.1,1.1-4.2,2c-1.1,0.9-1.9,2-2.5,3.3
			c-0.2,0.6-0.4,1.2-0.5,1.9h-5.7c-0.2,0.9-0.3,1.8-0.3,2.8l0,1.6h2.4v2.5v0.2v4.6h11.2v-4.6V449v-2.5h-2.4v-1.6
			c0-1,0.2-1.7,0.5-2.2c0.2-0.3,0.5-0.5,0.9-0.6h1.7c0.3,0.1,0.6,0.3,0.7,0.5c0.2,0.4,0.3,1.2,0.3,2.3v1.6h2.4v2.5v0.2v4.6h10.9
			v-4.6V449v-2.5h-2.4v-2c0-0.9-0.1-1.7-0.2-2.4h5.7c-0.4-2.3-1.3-4.1-2.8-5.3C222.2,435.1,218.9,434.3,214.3,434.3L214.3,434.3z
			 M307,434.3c-2.3,0-4.3,0.2-6,0.7c-1.7,0.4-3.1,1.1-4.2,2c-1.1,0.9-1.9,2-2.5,3.3c-0.2,0.6-0.4,1.2-0.5,1.9h-5.7
			c-0.2,0.9-0.1,1.8-0.3,2.8v1.6h2.4v2.5v0.2v4.6h11.2v-4.6V449v-2.5H299v-1.6c0-1,0.2-1.7,0.5-2.2c0.2-0.3,0.5-0.5,0.9-0.6h1.7
			c0.3,0.1,0.6,0.3,0.7,0.5c0.2,0.4,0.5,1.2,0.3,2.3v1.6h2.4v2.5v0.2v4.6h10.9v-4.6V449v-2.5H314v-2c0-0.9-0.1-1.7-0.2-2.4h5.7
			c-0.4-2.3-1.3-4.1-2.8-5.3C314.8,435.1,311.6,434.3,307,434.3z M429.3,434.3c-2.3,0-4.3,0.2-6,0.7c-1.7,0.4-3.1,1.1-4.2,2
			c-1.1,0.9-1.9,2-2.5,3.3c-0.2,0.6-0.4,1.2-0.5,1.9h-5.7c-0.2,0.9-0.1,1.8-0.3,2.8v1.6h2.4v2.5l0,0.2v4.6h11.2v-4.6V449v-2.5h-2.4
			v-1.6c0-1,0.2-1.7,0.5-2.2c0.2-0.3,0.5-0.5,0.9-0.6h1.7c0.3,0.1,0.6,0.3,0.7,0.5c0.2,0.4,0.3,1.2,0.3,2.3v1.6h2.4v2.5v0.2v4.6
			h10.9v-4.6V449v-2.5h-2.4v-2c0-0.9-0.1-1.7-0.2-2.4h5.7c-0.4-2.3-1.3-4.1-2.8-5.3C437.2,435.1,433.9,434.3,429.3,434.3
			L429.3,434.3z M470,434.3c-2.3,0-4.3,0.2-6,0.7c-1.7,0.4-3.1,1.1-4.2,2c-1.1,0.9-1.9,2-2.5,3.3c-0.2,0.6-0.4,1.2-0.5,1.9h-5.7
			c-0.2,0.9-0.3,1.8-0.3,2.8v1.6h2.4v2.5v0.2v4.6h11.2v-4.6V449v-2.5h-2.4v-1.6c0-1,0.2-1.7,0.5-2.2c0.2-0.3,0.5-0.5,0.9-0.6h1.7
			c0.3,0.1,0.6,0.3,0.7,0.5c0.2,0.4,0.3,1.2,0.3,2.3v1.6h2.4v2.5v0.2v4.6h10.9v-4.6V449v-2.5h-2.4v-2c0-0.9-0.1-1.7-0.2-2.4h5.7
			c-0.4-2.3-1.3-4.1-2.8-5.3C477.9,435.1,474.6,434.3,470,434.3L470,434.3z M242.8,435v6c0.5,0.2,0.8,0.5,1,0.9c0,0.1,0,0.1,0.1,0.2
			h-5.7c0.2,0.5,0.2,1.3,0.2,2.4v2h2.4v2.5v0.2v4.6h8.6v-2.4l0.6,2.4h11.4l0.7-2.7c0,1.2,0,2,0,2.7h10.5v-4.6V449v-2.5h-2.4v-2.2
			c0-0.9,0.1-1.6,0.1-2c0-0.1,0-0.1,0.1-0.2h5.7c0.1-0.3,0.2-0.5,0.3-0.6c0.2-0.1,0.4-0.3,0.8-0.5v-6h-13.4l-1.9,7.1h-3.3l-1.9-7.1
			H242.8z M335.8,435v6.4c0.4,0.2,0.6,0.5,0.8,0.8h-5.7c0,0.1,0.1,0.1,0.1,0.2c0.1,0.4,0.3,1.1,0.1,2.2v2h2.4v2.5v0.2v4.6h10.8
			l0-4.7h0l0-2.5h-2.4l0-2.3c0-0.8,0.1-1.4,0.3-1.8c0-0.1,0.1-0.2,0.1-0.2h5.7c0.2-0.3,0.5-0.6,0.9-0.8V435H335.8z M374.8,435v6
			c0.3,0.3,0.5,0.7,0.7,1.1h-5.7c0.2,0.5,0.3,1.1,0.3,1.8v2.6h2.4v2.5v0.2v4.6h18.2v-4.6V449v0h-7v-2.5h-2.4v-3.9
			c2.5,0,3.8,0.7,3.8,2.2v1.6h2.4v0.6h10.2v-0.6h-2.4v-4.4h5.7V435H374.8z M159.8,437l-6.6,4.6v0.6h-5.7v4.4h2.4l0,2.5v0.2v4.6h6.6
			l0-4.6h0l0-2.7h-2.4l0-4.4h5.7l0-0.7H178v0.7h5.4v-0.8l-5.4-4.4H159.8z M214.3,442c0.4,0,0.7,0,0.9,0.1h-1.7
			C213.7,442,214,442,214.3,442z M307,442c0.4,0,0.7,0,0.9,0.1h-1.7C306.4,442,306.7,442,307,442z M429.3,442c0.4,0,0.7,0,0.9,0.1
			h-1.7C428.8,442,429,442,429.3,442z M470,442c0.4,0,0.7,0,0.9,0.1h-1.7C469.5,442,469.7,442,470,442z M172.3,442.1v4.4h2.4v2.5
			v0.2v4.6h5.4v-4.6V449v-2.5h-2.4v-4.4H172.3z M253.1,442.1h3.3l-1.2,4.4h-1L253.1,442.1z M163.7,445.5c-1.9,0-3.6,0.3-4.9,1h2.4
			c-0.4,0.2-0.7,0.4-1,0.6v1.9v0.2v0.9h4.5c0-0.4,0.1-0.7,0.1-0.9h0.1c0.2-0.4,0.5-0.6,0.9-0.6c0.3,0.1,0.5,0.3,0.6,0.6h0
			c0,0.1,0,0.1,0,0.2c0,0.1,0,0.2,0,0.3c0,0.1,0,0.3,0,0.4l-3.5,1.1c-0.5,0.1-1,0.3-1.6,0.6c-0.5,0.3-0.9,0.7-1.3,1.2
			c-0.1,0.2-0.2,0.4-0.3,0.7h5.1c0.1-0.1,0.2-0.2,0.4-0.2c0.5-0.2,0.9-0.3,1.2-0.4v0.6h4.9v-4.6c0,0,0-0.1,0-0.1h0
			c-0.1-1.1-0.6-2-1.4-2.5h-2.4c0,0,0,0-0.1-0.1C166.3,445.8,165.1,445.5,163.7,445.5L163.7,445.5z M256.6,446.5h1l-0.5,1.9
			L256.6,446.5z M345.4,452.9c0,0.5,0,0.7,0,1.1c0,1.5,0,2.9,0,3.8c0,0.2,0,0.4,0,0.6h-3.4l0-4.4h-10.8v4.4h3.9v1.9
			c0,0.2,0,0.6,0,1.2c0,0.5-0.1,0.9-0.3,1.3h-4.9c-0.2,0.5-0.5,0.8-1,1v6.1h25.5v-7.1h4.9v-4.3h-3.9v-4.4v-1.1H345.4z M147.4,453.9
			v4.4h3.9v3.9l0.5,0.4h-4.9l6.1,4.8h18.3v-4.8h4.9v-0.5h-18.3l0-3.8h-3.9l0-4.4H147.4z M157.3,453.9c-0.1,0.4-0.2,0.7-0.2,1.1
			c0.1,1.3,0.5,2.3,1.2,2.9c0.1,0.1,0.3,0.2,0.5,0.3c0.6,0.4,1.4,0.6,2.2,0.6c0.5,0,1-0.1,1.4-0.2c0.3-0.1,0.6-0.3,0.9-0.4
			c0.1,0,0.1-0.1,0.2-0.1c0.3-0.2,0.6-0.4,0.9-0.6v0.7v0.3l13.4,0v-0.2v-4.4h-5.4v1.7l-2.8,0.1c-0.1-0.1-0.2-0.2-0.3-0.3
			c-0.1-0.1-0.2-0.2-0.3-0.4c-0.1-0.1-0.1-0.3-0.1-0.6v-0.5H164v0.8c-0.1,0.2-0.3,0.3-0.5,0.5c-0.3,0.1-0.5,0.2-0.7,0.2
			c-0.4,0-0.7-0.3-0.7-0.9c0-0.3,0.1-0.5,0.3-0.7H157.3z M195.2,453.9v4.4h3.9v0.9c0,1.2,0.1,2.4,0.3,3.4h-4.9c0.2,1,0.6,2,1,2.8
			c0.9,1.6,2.4,2.9,4.3,3.7c2,0.8,4.6,1.2,7.7,1.2c2.4,0,4.4-0.2,6-0.7s2.9-1.1,3.9-1.9c1-0.9,1.7-1.9,2.1-3.2
			c0.2-0.6,0.4-1.3,0.5-2h4.9c0.1-0.8,0.3-1.6,0.2-2.4v-1.9h-3.9v-4.4h-10.9v4.4h3.9v1.2c0,1.1-0.1,1.9-0.4,2.4
			c-0.2,0.3-0.4,0.6-0.8,0.7h-1.5c-0.4-0.1-0.8-0.4-1-0.8c-0.3-0.6-0.5-1.4-0.5-2.3v-1.2h-3.9v-4.4H195.2z M238.4,453.9v4.4h3.9v1.9
			c0.1,0.4,0.1,0.8,0,1.2c0,0.5-0.1,0.9-0.3,1.3h-4.9c0,0,0,0,0,0.1c-0.2,0.4-0.5,0.6-1.1,0.7v6.4h11.2v-6.4
			c-0.5-0.3-0.8-0.4-0.9-0.6c0,0,0-0.1-0.1-0.2h2.6l1.9,7.1h3.2l1.8-7.1h2.6c-0.2,0.3-0.5,0.6-0.9,0.8v6.4h13.1v-6.4
			c-0.4-0.2-0.7-0.5-0.9-0.8h4.9c-0.1-0.1-0.2-0.3-0.2-0.4c-0.1-0.5-0.2-1.4-0.2-2.7v-1.2h-3.9v-4.4h-10.5c0,0,0,0.1,0,0.1
			c0,0.7,0,1.3,0,1.8c0,0.6,0,1.1,0,1.7c0,0.3,0,0.5,0,0.8h-1.9l1.1-4.4h-11.4l1.2,4.4H247c0-0.1,0-0.1,0-0.3l0-4.1H238.4z
			 M287.9,453.9v4.4h3.9v0.9c0,1.2,0.1,2.4,0.3,3.4h-4.9c0.2,1,0.6,2,1,2.8c0.9,1.6,2.4,2.9,4.3,3.7c2,0.8,4.6,1.2,7.7,1.2
			c2.4,0,4.4-0.2,6-0.7c1.6-0.4,2.9-1.1,3.9-1.9c1-0.9,1.7-1.9,2.1-3.2c0.2-0.6,0.4-1.3,0.5-2h4.9c0.1-0.8,0.2-1.6,0.2-2.4v-1.9H314
			v-4.4h-10.9v4.4h3.9v1.2c0,1.1-0.1,1.9-0.4,2.4c-0.2,0.3-0.4,0.6-0.8,0.7h-1.5c-0.4-0.1-0.8-0.4-1-0.8c-0.3-0.6-0.5-1.4-0.5-2.3
			v-1.2H299v-4.4H287.9z M370,453.9v4.4h3.9v1.9c0,0.2,0,0.6,0,1.1c0,0.5-0.1,0.9-0.2,1.3c0,0,0,0,0,0.1h-4.9
			c-0.1,0.3-0.4,0.6-0.7,0.8v6.4h26.2v-7.1h4.9v-4.3h-3.9v-1H385v1h-3.8v-2.6h7l0-1.8H370z M410.2,453.9v4.4h3.9v0.9
			c0,1.2,0.1,2.4,0.3,3.4h-4.9c0.2,1,0.6,2,1,2.8c0.9,1.6,2.4,2.9,4.3,3.7c2,0.8,4.6,1.2,7.7,1.2c2.4,0,4.4-0.2,6-0.7
			c1.6-0.4,2.9-1.1,3.9-1.9c1-0.9,1.7-1.9,2.1-3.2c0.2-0.6,0.4-1.3,0.5-2h4.9c0.1-0.8,0.2-1.6,0.2-2.4v-1.9h-3.9v-4.4h-10.9v4.4h3.9
			v1.2c0,1.1-0.1,1.9-0.4,2.4c-0.2,0.3-0.4,0.6-0.8,0.7h-1.5c-0.4-0.1-0.8-0.4-1-0.8c-0.3-0.6-0.5-1.4-0.5-2.3v-1.2h-3.9v-4.4H410.2
			z M450.9,453.9v4.4h3.9v0.9c0,1.2,0.1,2.4,0.3,3.4h-4.9c0.2,1,0.6,2,1,2.8c0.9,1.6,2.4,2.9,4.3,3.7c2,0.8,4.6,1.2,7.7,1.2
			c2.4,0,4.4-0.2,6-0.7c1.6-0.4,2.9-1.1,3.9-1.9c1-0.9,1.7-1.9,2.1-3.2c0.2-0.6,0.4-1.3,0.5-2h4.9c0.1-0.8,0.2-1.6,0.2-2.4v-1.9
			h-3.9v-4.4h-10.9v4.4h3.9v1.2c0,1.1-0.1,1.9-0.4,2.4c-0.2,0.3-0.4,0.6-0.8,0.7h-1.5c-0.4-0.1-0.8-0.4-1-0.8
			c-0.3-0.6-0.5-1.4-0.5-2.3v-1.2h-3.9v-4.4H450.9z M250.9,458.3h1.8l1.1,4.3h-2.6c-0.1-0.2-0.2-0.5-0.2-1
			C250.9,461,250.9,459.8,250.9,458.3L250.9,458.3z M261.8,458.3h1.9c0,0.3,0,0.7,0,1c0,1.4-0.1,2.4-0.3,2.9c0,0.1-0.1,0.2-0.2,0.4
			h-2.6L261.8,458.3z M345.8,458.3h3.4c0,0.8-0.1,1.5-0.3,2c-0.2,0.7-0.5,1.2-1,1.5c-0.5,0.3-1.2,0.5-2.1,0.5L345.8,458.3z
			 M385.1,458.3h3.8v1.5c0,0.5-0.1,0.9-0.2,1.3c-0.2,0.3-0.5,0.6-1.1,0.9c-0.6,0.2-1.4,0.4-2.5,0.4V458.3z M206.8,462.6h1.5
			c-0.2,0.1-0.4,0.1-0.7,0.1C207.3,462.7,207,462.7,206.8,462.6z M299.5,462.6h1.5c-0.2,0.1-0.4,0.1-0.7,0.1
			C300,462.7,299.7,462.7,299.5,462.6z M421.8,462.6h1.5c-0.2,0.1-0.4,0.1-0.7,0.1C422.3,462.7,422.1,462.7,421.8,462.6z
			 M462.5,462.6h1.5c-0.2,0.1-0.4,0.1-0.7,0.1C463,462.7,462.8,462.7,462.5,462.6z"/>
		<path id="path4771" class="st1" d="M224.2,434.3c-2.3,0-4.3,0.2-6,0.7c-1.7,0.4-3.1,1.1-4.2,2c-1.1,0.9-1.9,2-2.5,3.3
			c-0.2,0.6-0.4,1.2-0.5,1.9h-5.7c-0.2,0.9-0.3,1.8-0.3,2.8v1.6h2.4v2.5v0.2v4.6h11.2v-4.6V449v-2.5h-2.4v-1.6c0-1,0.2-1.7,0.5-2.2
			c0.2-0.3,0.5-0.5,0.9-0.6h1.7c0.3,0.1,0.6,0.3,0.7,0.5c0.2,0.4,0.3,1.2,0.3,2.3v1.6h2.4v2.5v0.2v4.6h10.9v-4.6V449v-2.5h-2.4v-2
			c0-0.9-0.1-1.7-0.2-2.4h5.7c-0.4-2.3-1.3-4.1-2.8-5.3C232.1,435.1,228.8,434.3,224.2,434.3L224.2,434.3z M316.9,434.3
			c-2.3,0-4.3,0.2-6,0.7c-1.7,0.4-3.1,1.1-4.2,2c-1.1,0.9-1.9,2-2.5,3.3c-0.2,0.6-0.4,1.2-0.5,1.9h-5.7c-0.2,0.9-0.1,1.8-0.3,2.8
			v1.6h2.4v2.5v0.2v4.6h11.2v-4.6V449v-2.5H309v-1.6c0-1,0.2-1.7,0.5-2.2c0.2-0.3,0.5-0.5,0.9-0.6h1.7c0.3,0.1,0.6,0.3,0.7,0.5
			c0.2,0.4,0.5,1.2,0.3,2.3v1.6h2.4v2.5v0.2v4.6h10.9v-4.6V449v-2.5H324v-2c0-0.9-0.1-1.7-0.2-2.4h5.7c-0.4-2.3-1.3-4.1-2.8-5.3
			C324.8,435.1,321.5,434.3,316.9,434.3L316.9,434.3z M439.3,434.3c-2.3,0-4.3,0.2-6,0.7c-1.7,0.4-3.1,1.1-4.2,2
			c-1.1,0.9-1.9,2-2.5,3.3c-0.2,0.6-0.4,1.2-0.5,1.9h-5.7c-0.2,0.9-0.1,1.8-0.3,2.8v1.6h2.4v2.5v0.2v4.6h11.2v-4.6V449l0-2.5h-2.4
			v-1.6c0-1,0.2-1.7,0.5-2.2c0.2-0.3,0.5-0.5,0.9-0.6h1.7c0.3,0.1,0.6,0.3,0.7,0.5c0.2,0.4,0.3,1.2,0.3,2.3v1.6h2.4v2.5v0.2v4.6
			h10.9v-4.6V449v-2.5h-2.4v-2c0-0.9-0.1-1.7-0.2-2.4h5.7c-0.4-2.3-1.3-4.1-2.8-5.3C447.1,435.1,443.9,434.3,439.3,434.3
			L439.3,434.3z M480,434.3c-2.3,0-4.3,0.2-6,0.7c-1.7,0.4-3.1,1.1-4.2,2c-1.1,0.9-1.9,2-2.5,3.3c-0.2,0.6-0.4,1.2-0.5,1.9h-5.7
			c-0.2,0.9-0.3,1.8-0.3,2.8v1.6h2.4v2.5v0.2v4.6h11.2v-4.6V449v-2.5H472v-1.6c0-1,0.2-1.7,0.5-2.2c0.2-0.3,0.5-0.5,0.9-0.6h1.7
			c0.3,0.1,0.6,0.3,0.7,0.5c0.2,0.4,0.3,1.2,0.3,2.3v1.6h2.4v2.5v0.2v4.6h10.9v-4.6V449v-2.5H487v-2c0-0.9-0.1-1.7-0.2-2.4h5.7
			c-0.4-2.3-1.3-4.1-2.8-5.3C487.8,435.1,484.5,434.3,480,434.3L480,434.3z M252.8,435v6c0.5,0.2,0.8,0.5,1,0.9c0,0.1,0,0.1,0.1,0.2
			h-5.7c0.2,0.5,0.4,1.3,0.2,2.4v2h2.4v2.5v0.2v4.6h8.6v-2.4l0.6,2.4h11.4l0.7-2.7c0,1.2,0,2,0,2.7h10.5v-4.6V449v-2.5h-2.4v-2.2
			c0-0.9,0.1-1.6,0.1-2c0-0.1,0-0.1,0.1-0.2h5.7c0.1-0.3,0.2-0.5,0.3-0.6c0.2-0.1,0.4-0.3,0.8-0.5v-6h-13.4l-1.9,7.1h-3.3l-1.9-7.1
			H252.8z M345.8,435v6.4c0.4,0.2,0.6,0.5,0.8,0.8h-5.7c0,0.1,0.1,0.1,0.1,0.2c0.1,0.4,0.1,1.1,0.1,2.2v2h2.4v2.5v0.2v4.6h10.8
			l0-4.7h0l0-2.5h-2.4l0-2.3c0-0.8,0.1-1.4,0.3-1.8c0-0.1,0.1-0.2,0.1-0.2h5.7c0.2-0.3,0.5-0.6,0.9-0.8V435H345.8z M384.7,435v6
			c0.3,0.3,0.5,0.7,0.7,1.1h-5.7c0.2,0.5,0.4,1.1,0.3,1.8v2.6h2.4v2.5v0.2v4.6h18.2v-4.6V449v0h-7v-2.5h-2.4v-3.9
			c2.5,0,4,0.8,3.8,2.2v1.6h2.4v0.6h10.2v-0.6h-2.4v-4.4h5.7V435H384.7z M169.7,437l-6.6,4.6v0.6h-5.7v4.4h2.4v2.5v0.2v4.6h6.6
			l0-4.6h0l0-2.7h-2.4l0-4.4h5.7l0-0.7H188v0.7h5.4v-0.8l-5.4-4.4H169.7z M224.2,442c0.4,0,0.7,0,0.9,0.1h-1.7
			C223.7,442,223.9,442,224.2,442z M316.9,442c0.4,0,0.7,0,0.9,0.1h-1.7C316.4,442,316.6,442,316.9,442z M439.3,442
			c0.4,0,0.7,0,0.9,0.1h-1.7C438.7,442,439,442,439.3,442z M480,442c0.4,0,0.7,0,0.9,0.1h-1.7C479.4,442,479.7,442,480,442z
			 M182.3,442.1v4.4h2.4v2.5v0.2v4.6h5.4v-4.6V449v-2.5h-2.4v-4.4H182.3z M263,442.1h3.3l-1.2,4.4h-1L263,442.1z M173.6,445.5
			c-1.9,0-3.6,0.3-4.9,1h2.4c-0.4,0.2-0.7,0.4-1,0.6v1.9v0.2v0.9h4.5c0-0.4,0.1-0.7,0.1-0.9h0.1c0.2-0.4,0.5-0.6,0.9-0.6
			c0.3,0.1,0.5,0.3,0.6,0.6h0c0,0.1,0,0.1,0,0.2c0,0.1,0,0.2,0,0.3c0,0.1,0,0.3,0,0.4l-3.5,1.1c-0.5,0.1-1,0.3-1.6,0.6
			c-0.5,0.3-0.9,0.7-1.3,1.2c-0.1,0.2-0.2,0.4-0.3,0.7h5.1c0.1-0.1,0.2-0.2,0.4-0.2c0.5-0.2,0.9-0.3,1.2-0.4v0.6h4.9v-4.6
			c0,0,0-0.1,0-0.1h0c-0.1-1.1-0.6-2-1.4-2.5h-2.4c0,0,0,0-0.1-0.1C176.3,445.8,175.1,445.5,173.6,445.5L173.6,445.5z M266.5,446.5
			h1l-0.5,1.9L266.5,446.5z M355.4,452.9c0,0.5,0,0.7,0,1.1c0,1.5,0,2.9,0,3.8c0,0.2,0,0.4,0,0.6h-3.4l0-4.4H341v4.4h3.9v1.9
			c0,0.2,0,0.6,0,1.2c0,0.5-0.1,0.9-0.3,1.3h-4.9c-0.2,0.5-0.5,0.8-1,1v6.1h25.5v-7.1h4.9v-4.3h-3.9v-4.4v-1.1H355.4z M157.4,453.9
			v4.4h3.9v3.9l0.5,0.4h-4.9l6.1,4.8h18.3l0-4.8h4.9v-0.5h-18.3l0-3.8H164l0-4.4H157.4z M167.3,453.9c-0.1,0.4-0.2,0.7-0.2,1.1
			c0.1,1.3,0.5,2.3,1.2,2.9c0.1,0.1,0.3,0.2,0.5,0.3c0.6,0.4,1.4,0.6,2.2,0.6c0.5,0,1-0.1,1.4-0.2c0.3-0.1,0.6-0.3,0.9-0.4
			c0.1,0,0.1-0.1,0.2-0.1c0.3-0.2,0.6-0.4,0.9-0.6v0.7v0.3l13.4,0v-0.2l0-4.4h-5.4v1.7l-2.8,0.1c-0.1-0.1-0.2-0.2-0.3-0.3
			c-0.1-0.1-0.2-0.2-0.3-0.4c-0.1-0.1-0.1-0.3-0.1-0.6v-0.5h-4.9v0.8c-0.1,0.2-0.3,0.3-0.5,0.5c-0.3,0.1-0.5,0.2-0.7,0.2
			c-0.4,0-0.7-0.3-0.7-0.9c0-0.3,0.1-0.5,0.3-0.7H167.3z M205.1,453.9l0,4.4h3.9v0.9c0,1.2,0.1,2.4,0.3,3.4h-4.9c0.2,1,0.6,2,1,2.8
			c0.9,1.6,2.4,2.9,4.3,3.7c2,0.8,4.6,1.2,7.7,1.2c2.4,0,4.4-0.2,6-0.7c1.6-0.4,2.9-1.1,3.9-1.9c1-0.9,1.7-1.9,2.1-3.2
			c0.2-0.6,0.4-1.3,0.5-2h4.9c0.1-0.8,0.2-1.6,0.2-2.4v-1.9h-3.9v-4.4h-10.9v4.4h3.9v1.2c0,1.1-0.1,1.9-0.4,2.4
			c-0.2,0.3-0.4,0.6-0.8,0.7h-1.5c-0.4-0.1-0.8-0.4-1-0.8c-0.3-0.6-0.5-1.4-0.5-2.3v-1.2h-3.9v-4.4H205.1z M248.4,453.9v4.4h3.9v1.9
			c0.1,0.4,0.1,0.8,0,1.2c0,0.5-0.1,0.9-0.3,1.3h-4.9c0,0,0,0,0,0.1c-0.2,0.4-0.5,0.6-1.1,0.7v6.4h11.2v-6.4
			c-0.5-0.3-0.8-0.4-0.9-0.6c0,0,0-0.1-0.1-0.2h2.6l1.9,7.1h3.2l1.8-7.1h2.6c-0.2,0.3-0.5,0.6-0.9,0.8v6.4h13.1v-6.4
			c-0.4-0.2-0.7-0.5-0.9-0.8h4.9c-0.1-0.1-0.2-0.3-0.2-0.4c-0.1-0.5-0.2-1.4-0.2-2.7v-1.2h-3.9v-4.4h-10.5c0,0,0,0.1,0,0.1
			c0,0.7,0,1.3,0,1.8c0,0.6,0,1.1,0,1.7c0,0.3,0,0.5,0,0.8h-1.9l1.1-4.4h-11.4l1.2,4.4H257c0-0.1,0-0.1,0-0.3v-4.1H248.4z
			 M297.8,453.9v4.4h3.9v0.9c0,1.2,0.1,2.4,0.3,3.4h-4.9c0.2,1,0.6,2,1,2.8c0.9,1.6,2.4,2.9,4.3,3.7c2,0.8,4.6,1.2,7.7,1.2
			c2.4,0,4.4-0.2,6-0.7s2.9-1.1,3.9-1.9c1-0.9,1.7-1.9,2.1-3.2c0.2-0.6,0.4-1.3,0.5-2h4.9c0.1-0.8,0.2-1.6,0.2-2.4v-1.9H324v-4.4
			h-10.9v4.4h3.9v1.2c0,1.1-0.1,1.9-0.4,2.4c-0.2,0.3-0.4,0.6-0.8,0.7h-1.5c-0.4-0.1-0.8-0.4-1-0.8c-0.3-0.6-0.3-1.4-0.5-2.3v-1.2
			H309l0-4.4H297.8z M380,453.9l0,4.4h3.9v1.9c0,0.2,0,0.6,0,1.1c0,0.5-0.1,0.9-0.2,1.3c0,0,0,0,0,0.1h-4.9
			c-0.1,0.3-0.4,0.6-0.7,0.8v6.4h26.2v-7.1h4.9v-4.3h-3.9v-1H395v1h-3.8v-2.6h7v-1.8H380z M420.2,453.9v4.4h3.9v0.9
			c0,1.2,0.1,2.4,0.3,3.4h-4.9c0.2,1,0.6,2,1,2.8c0.9,1.6,2.4,2.9,4.3,3.7c2,0.8,4.6,1.2,7.7,1.2c2.4,0,4.4-0.2,6-0.7
			c1.6-0.4,2.9-1.1,3.9-1.9c1-0.9,1.7-1.9,2.1-3.2c0.2-0.6,0.4-1.3,0.5-2h4.9c0.1-0.8,0.3-1.6,0.2-2.4v-1.9h-3.9v-4.4h-10.9v4.4h3.9
			v1.2c0,1.1-0.1,1.9-0.4,2.4c-0.2,0.3-0.4,0.6-0.8,0.7h-1.5c-0.4-0.1-0.8-0.4-1-0.8c-0.3-0.6-0.5-1.4-0.5-2.3v-1.2h-3.9v-4.4H420.2
			z M460.8,453.9v4.4h3.9v0.9c0,1.2,0.1,2.4,0.3,3.4h-4.9c0.2,1,0.6,2,1,2.8c0.9,1.6,2.4,2.9,4.3,3.7c2,0.8,4.6,1.2,7.7,1.2
			c2.4,0,4.4-0.2,6-0.7c1.6-0.4,2.9-1.1,3.9-1.9c1-0.9,1.7-1.9,2.1-3.2c0.2-0.6,0.4-1.3,0.5-2h4.9c0.1-0.8,0.2-1.6,0.2-2.4v-1.9H487
			v-4.4h-10.9v4.4h3.9v1.2c0,1.1-0.1,1.9-0.4,2.4c-0.2,0.3-0.4,0.6-0.8,0.7h-1.5c-0.4-0.1-0.8-0.4-1-0.8c-0.3-0.6-0.5-1.4-0.5-2.3
			v-1.2H472v-4.4H460.8z M260.9,458.3h1.8l1.1,4.3h-2.6c-0.1-0.2-0.2-0.5-0.2-1C260.9,461,260.9,459.8,260.9,458.3L260.9,458.3z
			 M271.8,458.3h1.9c0,0.3,0,0.7,0,1c0,1.4-0.1,2.4-0.3,2.9c0,0.1-0.1,0.2-0.2,0.4h-2.6L271.8,458.3z M355.8,458.3h3.4
			c0,0.8-0.1,1.5-0.3,2c-0.2,0.7-0.5,1.2-1,1.5c-0.5,0.3-1.2,0.5-2.1,0.5L355.8,458.3z M395,458.3h3.8v1.5c0,0.5-0.1,0.9-0.2,1.3
			c-0.2,0.3-0.5,0.6-1.1,0.9c-0.6,0.2-1.4,0.4-2.5,0.4V458.3z M216.8,462.6h1.5c-0.2,0.1-0.4,0.1-0.7,0.1
			C217.2,462.7,217,462.7,216.8,462.6z M309.4,462.6h1.5c-0.2,0.1-0.4,0.1-0.7,0.1C309.9,462.7,309.7,462.7,309.4,462.6z
			 M431.8,462.6h1.5c-0.2,0.1-0.4,0.1-0.7,0.1C432.3,462.7,432,462.7,431.8,462.6z M472.5,462.6h1.5c-0.2,0.1-0.4,0.1-0.7,0.1
			C472.9,462.7,472.7,462.7,472.5,462.6z"/>
		<path id="path4759" class="st2" d="M219,434.3c-2.3,0-4.3,0.2-6,0.7c-1.7,0.4-3.1,1.1-4.2,2c-1.1,0.9-1.9,2-2.5,3.3
			c-0.2,0.6-0.4,1.2-0.5,1.9h-5.7c-0.2,0.9-0.3,1.8-0.3,2.8v1.6h2.4v2.5v0.2v4.6h11.2v-4.6V449v-2.5h-2.4v-1.6c0-1,0.2-1.7,0.5-2.2
			c0.2-0.3,0.5-0.5,0.9-0.6h1.7c0.3,0.1,0.6,0.3,0.7,0.5c0.2,0.4,0.5,1.2,0.3,2.3v1.6h2.4v2.5v0.2v4.6h10.9v-4.6V449v-2.5h-2.4v-2
			c0-0.9-0.1-1.7-0.2-2.4h5.7c-0.4-2.3-1.3-4.1-2.8-5.3C226.9,435.1,223.6,434.3,219,434.3z M311.7,434.3c-2.3,0-4.3,0.2-6,0.7
			c-1.7,0.4-3.1,1.1-4.2,2c-1.1,0.9-1.9,2-2.5,3.3c-0.2,0.6-0.4,1.2-0.5,1.9h-5.7c-0.2,0.9-0.3,1.8-0.3,2.8v1.6h2.4v2.5v0.2v4.6
			h11.2v-4.6V449v-2.5h-2.4v-1.6c0-1,0.2-1.7,0.5-2.2c0.2-0.3,0.5-0.5,0.9-0.6h1.7c0.3,0.1,0.6,0.3,0.7,0.5c0.2,0.4,0.3,1.2,0.3,2.3
			v1.6h2.4v2.5v0.2l0,4.6h10.9v-4.6V449v-2.5h-2.4v-2c0-0.9-0.1-1.7-0.2-2.4h5.7c-0.4-2.3-1.3-4.1-2.8-5.3
			C319.6,435.1,316.3,434.3,311.7,434.3z M434.1,434.3c-2.3,0-4.3,0.2-6,0.7c-1.7,0.4-3.1,1.1-4.2,2c-1.1,0.9-1.9,2-2.5,3.3
			c-0.2,0.6-0.4,1.2-0.5,1.9h-5.7c-0.2,0.9-0.3,1.8-0.3,2.8v1.6h2.4v2.5v0.2v4.6h11.2v-4.6V449v-2.5h-2.4v-1.6c0-1,0.2-1.7,0.5-2.2
			c0.2-0.3,0.5-0.5,0.9-0.6h1.7c0.3,0.1,0.6,0.3,0.7,0.5c0.2,0.4,0.5,1.2,0.3,2.3v1.6h2.4v2.5v0.2v4.6h10.9v-4.6V449v-2.5h-2.4v-2
			c0-0.9-0.1-1.7-0.2-2.4h5.7c-0.4-2.3-1.3-4.1-2.8-5.3C441.9,435.1,438.7,434.3,434.1,434.3L434.1,434.3z M474.8,434.3
			c-2.3,0-4.3,0.2-6,0.7c-1.7,0.4-3.1,1.1-4.2,2c-1.1,0.9-1.9,2-2.5,3.3c-0.2,0.6-0.4,1.2-0.5,1.9h-5.7c-0.2,0.9-0.3,1.8-0.3,2.8
			v1.6h2.4v2.5v0.2v4.6h11.2v-4.6V449l0-2.5h-2.4v-1.6c0-1,0.2-1.7,0.5-2.2c0.2-0.3,0.5-0.5,0.9-0.6h1.7c0.3,0.1,0.6,0.3,0.7,0.5
			c0.2,0.4,0.3,1.2,0.3,2.3v1.6h2.4v2.5v0.2v4.6h10.9l0-4.6V449v-2.5h-2.4v-2c0-0.9-0.1-1.7-0.2-2.4h5.7c-0.4-2.3-1.3-4.1-2.8-5.3
			C482.6,435.1,479.3,434.3,474.8,434.3L474.8,434.3z M247.6,435v6c0.5,0.2,0.8,0.5,1,0.9c0,0.1,0,0.1,0.1,0.2h-5.7
			c0.2,0.5,0.2,1.3,0.2,2.4v2h2.4v2.5v0.2v4.6h8.6v-2.4l0.6,2.4h11.4l0.7-2.7c0,1.2,0,2,0,2.7h10.5v-4.6V449v-2.5h-2.4v-2.2
			c0-0.9,0.1-1.6,0.1-2c0-0.1,0-0.1,0.1-0.2h5.7c0.1-0.3,0.2-0.5,0.3-0.6c0.2-0.1,0.4-0.3,0.8-0.5v-6h-13.4l-1.9,7.1h-3.3l-1.9-7.1
			H247.6z M340.5,435v6.4c0.4,0.2,0.6,0.5,0.8,0.8h-5.7c0,0.1,0.1,0.1,0.1,0.2c0.1,0.4,0.1,1.1,0.1,2.2v2h2.4v2.5v0.2v4.6H349l0-4.7
			h0l0-2.5h-2.4l0-2.3c0-0.8,0.1-1.4,0.3-1.8c0-0.1,0.1-0.2,0.1-0.2h5.7c0.2-0.3,0.5-0.6,0.9-0.8V435H340.5z M379.5,435v6
			c0.3,0.3,0.5,0.7,0.7,1.1h-5.7c0.2,0.5,0.3,1.1,0.3,1.8v2.6h2.4v2.5v0.2v4.6h18.2v-4.6V449v0h-7v-2.5h-2.4v-3.9
			c2.5,0,4,0.8,3.8,2.2v1.6h2.4v0.6h10.2v-0.6H400v-4.4h5.7l0-7.1H379.5z M164.5,437l-6.6,4.6v0.6h-5.7v4.4h2.4v2.5v0.2v4.6h6.6
			l0-4.6h0l0-2.7h-2.4l0-4.4h5.7l0-0.7h18.2v0.7h5.4v-0.8l-5.4-4.4H164.5z M219,442c0.4,0,0.7,0,0.9,0.1h-1.7
			C218.5,442,218.7,442,219,442z M311.7,442c0.4,0,0.7,0,0.9,0.1h-1.7C311.2,442,311.4,442,311.7,442z M434.1,442
			c0.4,0,0.7,0,0.9,0.1h-1.7C433.5,442,433.8,442,434.1,442z M474.8,442c0.4,0,0.7,0,0.9,0.1H474C474.2,442,474.5,442,474.8,442z
			 M177,442.1v4.4h2.4v2.5v0.2v4.6h5.4v-4.6V449v-2.5h-2.4v-4.4H177z M257.8,442.1h3.3l-1.2,4.4h-1L257.8,442.1z M168.4,445.5
			c-1.9,0-3.6,0.3-4.9,1h2.4c-0.4,0.2-0.7,0.4-1,0.6v1.9v0.2v0.9h4.5c0-0.4,0.1-0.7,0.1-0.9h0.1c0.2-0.4,0.5-0.6,0.9-0.6
			c0.3,0.1,0.5,0.3,0.6,0.6h0c0,0.1,0,0.1,0,0.2c0,0.1,0,0.2,0,0.3s0,0.3,0,0.4l-3.5,1.1c-0.5,0.1-1,0.3-1.6,0.6
			c-0.5,0.3-0.9,0.7-1.3,1.2c-0.1,0.2-0.2,0.4-0.3,0.7h5.1c0.1-0.1,0.2-0.2,0.4-0.2c0.5-0.2,0.9-0.3,1.2-0.4v0.6h4.9v-4.6
			c0,0,0-0.1,0-0.1h0c-0.1-1.1-0.6-2-1.4-2.5h-2.4c0,0,0,0-0.1-0.1C171.1,445.8,169.8,445.5,168.4,445.5L168.4,445.5z M261.3,446.5
			h1l-0.5,1.9L261.3,446.5z M350.2,452.9c0,0.5,0,0.7,0,1.1c0,1.5,0,2.9,0,3.8c0,0.2,0,0.4,0,0.6h-3.4l0-4.4h-10.8v4.4h3.9v1.9
			c0,0.2,0,0.6,0,1.2c0,0.5-0.1,0.9-0.3,1.3h-4.9c-0.2,0.5-0.5,0.8-1,1v6.1h25.5v-7.1h4.9v-4.3h-3.9v-4.4v-1.1H350.2z M152.2,453.9
			v4.4h3.9v3.9l0.5,0.4h-4.9l6.1,4.8H176v-4.8h4.9v-0.5h-18.3l0-3.8h-3.9l0-4.4H152.2z M162,453.9c-0.1,0.4-0.2,0.7-0.2,1.1
			c0.1,1.3,0.5,2.3,1.2,2.9c0.1,0.1,0.3,0.2,0.5,0.3c0.6,0.4,1.4,0.6,2.2,0.6c0.5,0,1-0.1,1.4-0.2c0.3-0.1,0.6-0.3,0.9-0.4
			c0.1,0,0.1-0.1,0.2-0.1c0.3-0.2,0.6-0.4,0.9-0.6v0.7v0.3l13.4,0v-0.2v-4.4H177l0,1.7l-2.8,0.1c-0.1-0.1-0.2-0.2-0.3-0.3
			s-0.2-0.2-0.3-0.4c-0.1-0.1-0.1-0.3-0.1-0.6v-0.5h-4.9v0.8c-0.1,0.2-0.3,0.3-0.5,0.5c-0.3,0.1-0.5,0.2-0.7,0.2
			c-0.4,0-0.7-0.3-0.7-0.9c0-0.3,0.1-0.5,0.3-0.7H162z M199.9,453.9v4.4h3.9v0.9c0,1.2,0.1,2.4,0.3,3.4h-4.9c0.2,1,0.6,2,1,2.8
			c0.9,1.6,2.4,2.9,4.3,3.7c2,0.8,4.6,1.2,7.7,1.2c2.4,0,4.4-0.2,6-0.7s2.9-1.1,3.9-1.9c1-0.9,1.7-1.9,2.1-3.2
			c0.2-0.6,0.4-1.3,0.5-2h4.9c0.1-0.8,0.2-1.6,0.2-2.4v-1.9h-3.9v-4.4h-10.9v4.4h3.9v1.2c0,1.1-0.1,1.9-0.4,2.4
			c-0.2,0.3-0.4,0.6-0.8,0.7h-1.5c-0.4-0.1-0.8-0.4-1-0.8c-0.3-0.6-0.5-1.4-0.5-2.3v-1.2h-3.9v-4.4H199.9z M243.2,453.9v4.4h3.9v1.9
			c0.1,0.4,0.1,0.8,0,1.2c0,0.5-0.1,0.9-0.3,1.3h-4.9c0,0,0,0,0,0.1c-0.2,0.4-0.5,0.6-1.1,0.7v6.4H252v-6.4
			c-0.5-0.3-0.8-0.4-0.9-0.6c0,0,0-0.1-0.1-0.2h2.6l1.9,7.1h3.2l1.8-7.1h2.6c-0.2,0.3-0.5,0.6-0.9,0.8l0,6.4h13.1v-6.4
			c-0.4-0.2-0.7-0.5-0.9-0.8h4.9c-0.1-0.1-0.2-0.3-0.2-0.4c-0.1-0.5-0.2-1.4-0.2-2.7v-1.2h-3.9v-4.4h-10.5c0,0,0,0.1,0,0.1
			c0,0.7,0,1.3,0,1.8c0,0.6,0,1.1,0,1.7c0,0.3,0,0.5,0,0.8h-1.9l1.1-4.4h-11.4l1.2,4.4h-1.8c0-0.1,0-0.1,0-0.3v-4.1H243.2z
			 M292.6,453.9v4.4h3.9v0.9c0,1.2,0.1,2.4,0.3,3.4h-4.9c0.2,1,0.6,2,1,2.8c0.9,1.6,2.4,2.9,4.3,3.7c2,0.8,4.6,1.2,7.7,1.2
			c2.4,0,4.4-0.2,6-0.7c1.6-0.4,2.9-1.1,3.9-1.9c1-0.9,1.7-1.9,2.1-3.2c0.2-0.6,0.4-1.3,0.5-2h4.9c0.1-0.8,0.2-1.6,0.2-2.4v-1.9
			h-3.9v-4.4h-10.9v4.4h3.9v1.2c0,1.1-0.1,1.9-0.4,2.4c-0.2,0.3-0.4,0.6-0.8,0.7h-1.5c-0.4-0.1-0.8-0.4-1-0.8
			c-0.3-0.6-0.5-1.4-0.5-2.3v-1.2h-3.9v-4.4H292.6z M374.8,453.9v4.4h3.9v1.9c0,0.2,0,0.6,0,1.1c0,0.5-0.1,0.9-0.2,1.3
			c0,0,0,0,0,0.1h-4.9c-0.1,0.3-0.4,0.6-0.7,0.8v6.4H399v-7.1h4.9v-4.3H400v-1h-10.2v1h-3.8v-2.6h7v-1.8H374.8z M414.9,453.9v4.4
			h3.9v0.9c0,1.2,0.1,2.4,0.3,3.4h-4.9c0.2,1,0.6,2,1,2.8c0.9,1.6,2.4,2.9,4.3,3.7c2,0.8,4.6,1.2,7.7,1.2c2.4,0,4.4-0.2,6-0.7
			c1.6-0.4,2.9-1.1,3.9-1.9c1-0.9,1.7-1.9,2.1-3.2c0.2-0.6,0.4-1.3,0.5-2h4.9c0.1-0.8,0.2-1.6,0.2-2.4v-1.9h-3.9v-4.4h-10.9v4.4h3.9
			v1.2c0,1.1-0.1,1.9-0.4,2.4c-0.2,0.3-0.4,0.6-0.8,0.7h-1.5c-0.4-0.1-0.8-0.4-1-0.8c-0.3-0.6-0.5-1.4-0.5-2.3v-1.2h-3.9v-4.4H414.9
			z M455.6,453.9v4.4h3.9v0.9c0,1.2,0.1,2.4,0.3,3.4H455c0.2,1,0.6,2,1,2.8c0.9,1.6,2.4,2.9,4.3,3.7c2,0.8,4.6,1.2,7.7,1.2
			c2.4,0,4.4-0.2,6-0.7c1.6-0.4,2.9-1.1,3.9-1.9c1-0.9,1.7-1.9,2.1-3.2c0.2-0.6,0.4-1.3,0.5-2h4.9c0.1-0.8,0.2-1.6,0.2-2.4v-1.9
			h-3.9v-4.4h-10.9v4.4h3.9v1.2c0,1.1-0.1,1.9-0.4,2.4c-0.2,0.3-0.4,0.6-0.8,0.7h-1.5c-0.4-0.1-0.8-0.4-1-0.8
			c-0.3-0.6-0.5-1.4-0.5-2.3v-1.2h-3.9v-4.4H455.6z M255.6,458.3h1.8l1.1,4.3h-2.6c-0.1-0.2-0.2-0.5-0.2-1
			C255.7,461,255.7,459.8,255.6,458.3z M266.6,458.3h1.9c0,0.3,0,0.7,0,1c0,1.4-0.1,2.4-0.3,2.9c0,0.1-0.1,0.2-0.2,0.4h-2.6
			L266.6,458.3z M350.6,458.3h3.4c0,0.8-0.1,1.5-0.3,2c-0.2,0.7-0.5,1.2-1,1.5c-0.5,0.3-1.2,0.5-2.1,0.5L350.6,458.3z M389.8,458.3
			h3.8l0,1.5c0,0.5-0.1,0.9-0.2,1.3c-0.2,0.3-0.5,0.6-1.1,0.9c-0.6,0.2-1.4,0.4-2.5,0.4V458.3z M211.5,462.6h1.5
			c-0.2,0.1-0.4,0.1-0.7,0.1C212,462.7,211.8,462.7,211.5,462.6z M304.2,462.6h1.5c-0.2,0.1-0.4,0.1-0.7,0.1
			C304.7,462.7,304.5,462.7,304.2,462.6z M426.6,462.6h1.5c-0.2,0.1-0.4,0.1-0.7,0.1C427.1,462.7,426.8,462.7,426.6,462.6
			L426.6,462.6z M467.3,462.6h1.5c-0.2,0.1-0.4,0.1-0.7,0.1C467.7,462.7,467.5,462.7,467.3,462.6L467.3,462.6z"/>
	</g>
</g>
</svg>
